<?xml version="1.0" encoding="UTF-8"?>
<svg id="Layer_2" xmlns="http://www.w3.org/2000/svg" viewBox="0 0 188.76 71.2">
  <defs>
    <style>
      .cls-1 {
        stroke: #1d1d1b;
        stroke-miterlimit: 10;
        stroke-width: .25px;
      }

      .cls-1, .cls-2 {
        fill: #1d1d1b;
      }

      .cls-3 {
        letter-spacing: 0em;
      }

      .cls-4 {
        letter-spacing: 0em;
      }

      .cls-5 {
        letter-spacing: 0em;
      }

      .cls-6 {
        letter-spacing: 0em;
      }

      .cls-7 {
        letter-spacing: 0em;
      }

      .cls-8 {
        letter-spacing: 0em;
      }

      .cls-9 {
        letter-spacing: 0em;
      }

      .cls-10 {
        letter-spacing: 0em;
      }

      .cls-11 {
        letter-spacing: 0em;
      }

      .cls-12 {
        letter-spacing: 0em;
      }

      .cls-13 {
        letter-spacing: 0em;
      }

      .cls-14 {
        letter-spacing: 0em;
      }

      .cls-2 {
        font-family: BrownBold, Brown;
        font-size: 16.86px;
      }
    </style>
  </defs>
  <g id="Livello_2">
    <text class="cls-2" transform="translate(61.79 40.55)"><tspan class="cls-11" x="0" y="0">S</tspan><tspan class="cls-8" x="9.74" y="0">a</tspan><tspan class="cls-4" x="18.63" y="0">m</tspan><tspan class="cls-6" x="32.21" y="0">u</tspan><tspan class="cls-13" x="41.44" y="0">e</tspan><tspan class="cls-10" x="50.05" y="0">l</tspan><tspan x="54.66" y="0">e </tspan><tspan class="cls-9" x="67.71" y="0">M</tspan><tspan class="cls-7" x="81.75" y="0">a</tspan><tspan class="cls-5" x="90.61" y="0">s</tspan><tspan class="cls-12" x="98.59" y="0">i</tspan><tspan class="cls-14" x="103.17" y="0">e</tspan><tspan class="cls-3" x="111.8" y="0">r</tspan><tspan x="118.1" y="0">o</tspan></text>
    <path class="cls-1" d="M25.72,39.59l5.08,1.01s.07.02.2.01c.52-.02.93-.43.93-.96,0-.32-.15-.6-.38-.77,0,0-.07-.06-.21-.13l-5.44-2.12c-.85-.39-1.45-1.28-1.45-2.27,0-.44.12-.84.31-1.2.02-.03.05-.1.1-.16.88-1.14,1.38-2.42,1.38-3.97,0-1.97-.87-3.75-2.24-4.96,0,0-.06-.06-.22-.19-.14-.12-.29-.23-.43-.34.84-.04,1.49-.73,1.52-1.58.02-.64-.15-1.09-.28-1.49-.02-.06-.03-.08-.04-.11-.18-.46-.19-.93.16-1.28.28-.28.65-.34,1.01-.27l5.08,1.01s.07.02.2.01c.52-.02.93-.43.93-.96,0-.32-.15-.6-.38-.77,0,0-.07-.06-.21-.13l-5.44-2.12c-.85-.39-1.45-1.28-1.45-2.27,0-.44.12-.84.31-1.2.02-.03.05-.1.1-.16.88-1.14,1.38-2.42,1.38-3.97,0-1.97-.87-3.75-2.24-4.96,0,0-.06-.06-.22-.19C21.69,1.31,19.01.15,16.03.13c-2.98.02-5.65,1.19-7.76,2.98-.15.13-.22.19-.22.19-1.37,1.21-2.24,2.99-2.24,4.96,0,1.55.51,2.83,1.38,3.97.05.06.08.12.1.16.2.36.31.76.31,1.2,0,.99-.6,1.89-1.45,2.27l-5.44,2.12c-.13.07-.21.13-.21.13-.23.18-.38.46-.38.77,0,.53.42.94.93.96.14,0,.2-.01.2-.01l5.08-1.01c.36-.08.73-.01,1.01.27.35.35.34.82.16,1.28-.01.03-.02.06-.04.11-.14.4-.3.84-.28,1.49.03.81.61,1.47,1.4,1.57-.08,0-.16-.03-.22-.07-.52-.34-.1-1.75.84-3.03,1.21-1.64,2.12-2.03,2.53-1.78.68.42.23,1.7-.65,3.02-.77,1.16-1.87,1.91-2.48,1.86.04,0,.07.01.1.02-.15.11-.29.22-.43.34-.15.13-.22.19-.22.19-1.37,1.21-2.24,2.99-2.24,4.96,0,1.55.51,2.83,1.38,3.97.05.06.08.12.1.16.2.36.31.76.31,1.2,0,.99-.6,1.89-1.45,2.27l-5.44,2.12c-.13.07-.21.13-.21.13-.23.18-.38.46-.38.77,0,.53.42.94.93.96.14,0,.2-.01.2-.01l5.08-1.01c.36-.08.73-.01,1.01.27.35.35.34.82.16,1.28-.01.03-.02.06-.04.11-.14.4-.3.84-.28,1.49.03.85.67,1.54,1.52,1.58-.15.11-.29.22-.43.34-.15.13-.22.19-.22.19-1.37,1.21-2.24,2.99-2.24,4.96,0,1.55.51,2.83,1.38,3.97.05.06.08.12.1.16.2.36.31.76.31,1.2,0,.99-.6,1.89-1.45,2.27l-5.44,2.12c-.13.07-.21.13-.21.13-.23.18-.38.46-.38.77,0,.53.42.94.93.96.14,0,.2-.01.2-.01l5.08-1.01c.36-.08.73-.01,1.01.27.35.35.34.82.16,1.28-.01.03-.02.06-.04.11-.14.4-.3.84-.28,1.49.03.88.71,1.59,1.59,1.59.44,0,.79-.19,1.15-.47l.63-.55c.09-.1.16-.14.28-.14.15,0,.26.09.32.24v.03c.18.42.59.71,1.06.71.26,0,.5-.09.69-.23l.04-.03c.09-.07.17-.11.27-.11.2,0,.37.16.37.35l.92,4.74c.09.78.76,1.43,1.57,1.43s1.42-.64,1.51-1.43l.92-4.74c0-.19.16-.35.37-.35.11,0,.19.04.27.11l.04.03c.19.15.43.23.69.23.48,0,.88-.29,1.05-.71v-.03c.06-.15.18-.24.33-.24.12,0,.19.05.28.14l.63.55c.35.28.7.47,1.15.47.88,0,1.56-.71,1.59-1.59.02-.64-.15-1.09-.28-1.49-.02-.06-.03-.08-.04-.11-.18-.46-.19-.93.16-1.28.28-.28.65-.34,1.01-.27l5.08,1.01s.07.02.2.01c.52-.02.93-.43.93-.96,0-.32-.15-.6-.38-.77,0,0-.07-.06-.21-.13l-5.44-2.12c-.85-.39-1.45-1.28-1.45-2.27,0-.44.12-.84.31-1.2.02-.03.05-.1.1-.16.88-1.14,1.38-2.42,1.38-3.97,0-1.97-.87-3.75-2.24-4.96,0,0-.06-.06-.22-.19-.14-.12-.29-.23-.43-.34.84-.04,1.49-.73,1.52-1.58.02-.64-.15-1.09-.28-1.49-.02-.06-.03-.08-.04-.11-.18-.46-.19-.93.16-1.28.28-.28.65-.34,1.01-.27ZM23.58,23.43c-.49.38-1.69-.47-2.59-1.78-1.16-1.67-1.19-2.62-.86-2.97.64-.66,1.68.33,2.65,1.6.97,1.26,1.3,2.77.8,3.15ZM10.36,12.05l-.03-.02c-1.34-.87-2.21-2.34-2.21-4,0-1.45.67-2.76,1.73-3.64,0,0,.13-.11.16-.14,1.63-1.32,3.71-2.19,6.02-2.2,2.31.01,4.38.87,6.02,2.2.03.03.16.14.16.14,1.06.89,1.73,2.19,1.73,3.64,0,1.66-.88,3.13-2.21,4l-.03.02c-.81.52-1.79.82-2.84.83-.09,0-.11,0-.11,0h-.2c-.61-.05-1.1-.12-1.61-.33h0s0,0,0,0c-.27-.12-.57-.18-.89-.18s-.61.06-.88.18h0s0,0,0,0c-.51.2-1.01.28-1.61.32h-.2s-.03.01-.11.01c-1.05,0-2.03-.3-2.84-.83ZM11.73,15.89c-.05-.46.3-.86.76-.91,0,0,.06,0,.24-.02.79-.05,1.42-.15,2.09-.42h0s.01,0,.01,0c.35-.16.74-.23,1.15-.23h.08c.41,0,.8.08,1.15.23h.01s0,0,0,0c.66.27,1.3.37,2.09.42.18.01.24.02.24.02.47.05.81.45.76.91-.05.46-1.94,2.72-2.28,3.04l-.03.02c-.5.48-1.19.78-1.95.78h-.08c-.76,0-1.45-.3-1.95-.78l-.03-.02c-.34-.32-2.24-2.58-2.28-3.04ZM8.36,44.14c-.52-.34-.1-1.75.84-3.03,1.21-1.64,2.12-2.03,2.53-1.78.68.42.23,1.7-.65,3.02-.88,1.33-2.2,2.13-2.72,1.78ZM11.73,36.67c-.05-.46.3-.86.76-.91,0,0,.06,0,.24-.02.79-.05,1.42-.15,2.09-.42h0s.01,0,.01,0c.35-.16.74-.23,1.15-.23h.08c.41,0,.8.08,1.15.23h.01s0,0,0,0c.66.27,1.3.37,2.09.42.18.01.24.02.24.02.47.05.81.45.76.91s-1.94,2.72-2.28,3.04l-.03.02c-.5.48-1.19.78-1.95.78h-.08c-.76,0-1.45-.3-1.95-.78l-.03-.02c-.34-.32-2.24-2.58-2.28-3.04ZM11.12,63.15c-.86,1.34-2.17,2.16-2.69,1.83-.53-.34-.13-1.75.79-3.04,1.18-1.66,2.09-2.07,2.5-1.82.68.41.26,1.69-.6,3.03ZM18.04,60.49l-.03.02c-.5.48-1.19.78-1.95.78h-.08c-.76,0-1.45-.3-1.95-.78l-.03-.02c-.34-.32-2.24-2.58-2.28-3.04-.05-.46.3-.86.76-.91,0,0,.06,0,.24-.02.79-.05,1.42-.15,2.09-.42h0s.01,0,.01,0c.35-.16.74-.23,1.15-.23h.08c.41,0,.8.08,1.15.23h.01s0,0,0,0c.66.27,1.3.37,2.09.42.18.01.24.02.24.02.47.05.81.45.76.91-.05.46-1.94,2.72-2.28,3.04ZM23.58,65c-.55.29-1.69-.47-2.59-1.78-1.16-1.67-1.19-2.62-.86-2.97.64-.66,1.68.33,2.65,1.6.97,1.26,1.49,2.79.8,3.15ZM23.95,49.59c0,1.66-.88,3.13-2.21,4l-.03.02c-.81.52-1.79.82-2.84.83-.09,0-.11,0-.11,0h-.2c-.61-.05-1.1-.12-1.61-.33h0s0,0,0,0c-.27-.12-.57-.18-.89-.18s-.61.06-.88.18h0s0,0,0,0c-.51.2-1.01.28-1.61.32h-.2s-.03.01-.11.01c-1.05,0-2.03-.3-2.84-.83l-.03-.02c-1.34-.87-2.21-2.34-2.21-4,0-1.45.67-2.76,1.73-3.64,0,0,.13-.11.16-.14,1.02-.82,2.21-1.47,3.52-1.84.03.05.05.1.05.16l.92,4.74c.09.78.76,1.43,1.57,1.43s1.42-.64,1.51-1.43l.92-4.74c0-.06.02-.11.05-.16,1.31.37,2.5,1.02,3.52,1.84.03.03.16.14.16.14,1.06.89,1.73,2.19,1.73,3.64ZM21.98,44.25c.06.03.12.04.19.06.04.01.07.03.11.03.05.01.1.01.15.02.07,0,.13.02.2.01,0,0,.02,0,.02,0,0,0,0,0,.02,0-.02,0-.02,0-.02,0,0,0,0,0-.02,0,0,0,0,0,0,0-.02,0-.03,0-.06,0-.05,0-.09-.01-.14-.02-.05,0-.1,0-.15-.02-.04,0-.07-.02-.11-.03-.06-.02-.12-.03-.19-.06ZM23.58,44.11c-.49.38-1.69-.47-2.59-1.78-1.16-1.67-1.19-2.62-.86-2.97.64-.66,1.68.33,2.65,1.6.97,1.26,1.3,2.77.8,3.15ZM21.73,32.81l-.03.02c-.81.52-1.79.82-2.84.83-.09,0-.11,0-.11,0h-.2c-.61-.05-1.1-.12-1.61-.33h0s0,0,0,0c-.27-.12-.57-.18-.89-.18s-.61.06-.88.18h0s0,0,0,0c-.51.2-1.01.28-1.61.32h-.2s-.03.01-.11.01c-1.05,0-2.03-.3-2.84-.83l-.03-.02c-1.34-.87-2.21-2.34-2.21-4,0-1.45.67-2.76,1.73-3.64,0,0,.13-.11.16-.14,1.02-.82,2.21-1.47,3.52-1.84.03.05.05.1.05.16l.92,4.74c.09.78.76,1.43,1.57,1.43s1.42-.64,1.51-1.43l.92-4.74c0-.06.02-.11.05-.16,1.31.37,2.5,1.02,3.52,1.84.03.03.16.14.16.14,1.06.89,1.73,2.19,1.73,3.64,0,1.66-.88,3.13-2.21,4Z"/>
  </g>
</svg>